<?xml version="1.0"?>
<svg width="20" height="20" xmlns="http://www.w3.org/2000/svg" xmlnsSvg="http://www.w3.org/2000/svg" xmlns:xlink="http://www.w3.org/1999/xlink">
 <defs>
  <symbol id="svg_1" preserveAspectRatio="xMidYMid meet" viewBox="0 0 40.000000 40.000000" xmlns="http://www.w3.org/2000/svg">
   <g fill="#ce0037" id="svg_8" transform="translate(0.000000,40.000000) scale(0.100000,-0.100000)">
    <path d="m175,345c-163,-50 -170,-54 -173,-80c-2,-15 1,-32 7,-38c7,-7 11,-55 11,-119l0,-108l188,2l187,3l3,122l3,122l-152,3l-152,3l131,39c72,21 136,42 143,46c15,10 3,60 -14,59c-6,0 -88,-24 -182,-54zm175,15c12,-8 12,-10 -5,-10c-11,0 -27,5 -35,10c-12,8 -12,10 5,10c11,0 27,-5 35,-10zm-54,-15c16,-12 16,-14 3,-15c-9,0 -22,7 -29,15c-16,19 0,19 26,0zm-36,-15c12,-8 12,-10 -5,-10c-11,0 -27,5 -35,10c-12,8 -12,10 5,10c11,0 27,-5 35,-10zm-51,-9c7,-5 9,-11 4,-14c-6,-4 -19,0 -29,8c-15,11 -16,14 -4,15c8,0 21,-4 29,-9zm-42,-28c-9,-8 -48,8 -42,18c4,5 14,5 26,-2c12,-6 18,-13 16,-16zm-47,-3c12,-8 12,-10 -5,-10c-11,0 -27,5 -35,10c-12,8 -12,10 5,10c11,0 27,-5 35,-10zm-54,-15c10,-8 15,-14 9,-14c-5,0 -19,6 -29,14c-11,8 -15,15 -10,15c6,0 19,-7 30,-15zm-18,-27c-6,-18 -28,-21 -28,-4c0,9 7,16 16,16c9,0 14,-5 12,-12zm32,-33c-7,-8 -19,-15 -27,-15c-13,0 -13,3 -3,15c7,8 19,15 27,15c13,0 13,-3 3,-15zm40,0c-7,-8 -17,-15 -22,-15c-6,0 -5,7 2,15c7,8 17,15 22,15c6,0 5,-7 -2,-15zm50,0c-7,-8 -17,-15 -22,-15c-6,0 -5,7 2,15c7,8 17,15 22,15c6,0 5,-7 -2,-15zm50,0c-7,-8 -19,-15 -27,-15c-13,0 -13,3 -3,15c7,8 19,15 27,15c13,0 13,-3 3,-15zm50,0c-7,-8 -19,-15 -27,-15c-13,0 -13,3 -3,15c7,8 19,15 27,15c13,0 13,-3 3,-15zm50,0c-7,-8 -19,-15 -27,-15c-13,0 -13,3 -3,15c7,8 19,15 27,15c13,0 13,-3 3,-15zm40,0c-7,-8 -17,-15 -22,-15c-6,0 -5,7 2,15c7,8 17,15 22,15c6,0 5,-7 -2,-15zm20,-115l0,-80l-175,0l-175,0l0,80l0,80l175,0l175,0l0,-80z" id="svg_9"/>
   </g>
  </symbol>
  <symbol id="svg_4" preserveAspectRatio="xMidYMid meet" viewBox="0 0 40.000000 40.000000" xmlns="http://www.w3.org/2000/svg">
   <g fill="#ce0037" id="svg_10" transform="translate(0.000000,40.000000) scale(0.100000,-0.100000)">
    <path d="m8095,5821c-124,-35 -188,-112 -188,-226c0,-77 24,-124 95,-190c30,-28 76,-70 102,-93c75,-68 94,-134 58,-202c-21,-37 -70,-68 -117,-70c-56,-4 -110,0 -123,8c-7,5 -16,41 -20,88l-7,79l-31,3l-31,3l-11,-70c-19,-109 -17,-116 26,-134c255,-112 506,45 442,275c-12,43 -85,127 -165,188c-125,97 -139,222 -31,274c36,17 117,23 154,12c20,-7 32,-57 32,-132c0,-32 2,-34 34,-34l33,0l12,69c17,106 17,106 -39,130c-54,23 -177,35 -225,22z" id="svg_11"/>
    <path d="m1847,5803c-4,-3 -7,-14 -7,-23c0,-13 11,-19 41,-23c22,-3 43,-8 46,-10c10,-11 -109,-674 -124,-688c-4,-4 -26,-9 -48,-11c-33,-2 -41,-7 -43,-25l-3,-23l159,0c137,0 161,2 166,16c11,28 6,34 -28,34c-67,0 -66,-5 -35,173c16,89 29,163 29,165c0,4 317,2 322,-3c4,-5 -46,-294 -57,-322c-3,-8 -23,-13 -50,-13c-25,0 -45,-4 -45,-9c0,-5 -3,-16 -6,-25c-5,-14 13,-16 160,-16c94,0 166,4 166,9c0,5 3,16 6,25c5,13 -1,16 -32,16c-22,0 -44,4 -51,8c-12,7 4,112 78,506c30,163 35,179 57,187c13,5 34,9 47,9c21,0 35,17 35,41c0,5 -71,9 -165,9l-165,0l0,-24c0,-20 6,-24 41,-29c22,-3 43,-7 45,-10c4,-4 -24,-192 -42,-279l-6,-28l-164,0l-164,0l5,23c2,12 14,74 26,137c28,157 23,147 77,157c38,6 48,12 50,31l3,22l-159,0c-87,0 -162,-3 -165,-7z" id="svg_12"/>
    <path d="m2767,5803c-4,-3 -7,-14 -7,-23c0,-13 11,-19 41,-23c22,-3 43,-8 46,-10c8,-8 -110,-674 -122,-686c-3,-2 -24,-7 -47,-10c-30,-5 -43,-12 -49,-28l-8,-23l187,0c266,0 356,26 469,132c95,91 139,212 131,368c-8,167 -90,266 -246,299c-56,12 -384,16 -395,4zm381,-72c83,-43 114,-103 120,-231c6,-152 -34,-271 -120,-359c-59,-59 -117,-84 -211,-89c-74,-4 -79,-3 -74,14c3,11 9,39 12,64c7,47 88,487 106,579l11,54l59,-7c33,-3 76,-14 97,-25z" id="svg_13"/>
    <path d="m3590,5801c0,-5 -2,-16 -6,-24c-4,-11 7,-16 46,-21c45,-6 50,-9 45,-29c-2,-12 -12,-65 -20,-117c-36,-219 -98,-536 -107,-547c-6,-7 -27,-13 -48,-13c-36,0 -50,-12 -50,-41c0,-5 73,-9 170,-9l170,0l0,24c0,20 -6,24 -45,29c-26,2 -48,7 -51,10c-3,2 5,61 17,131l22,126l72,0c113,0 196,30 259,93c58,58 76,104 76,188c0,99 -57,166 -165,194c-66,17 -385,22 -385,6zm351,-66c36,-19 68,-83 69,-136c1,-132 -92,-229 -218,-229l-49,0l34,183c18,100 35,188 38,196c7,17 81,9 126,-14z" id="svg_14"/>
    <path d="m4487,5728c-24,-46 -113,-214 -196,-375c-159,-303 -159,-303 -223,-303c-16,0 -28,-4 -28,-9c0,-5 -3,-17 -6,-25c-6,-15 7,-16 122,-14c123,3 129,4 132,24c3,18 -3,22 -38,27c-23,3 -44,8 -47,11c-3,3 17,49 45,103l50,98l130,3l129,3l12,-102c14,-115 12,-119 -50,-119c-31,0 -37,-4 -41,-25l-5,-25l162,0c139,0 164,2 169,16c11,28 6,34 -27,34c-18,0 -40,6 -48,13c-12,9 -30,109 -67,372c-29,198 -52,363 -52,368c0,4 -18,7 -39,7c-39,0 -40,-1 -84,-82zm37,-225c10,-82 20,-156 22,-165c5,-16 -5,-18 -105,-18c-61,0 -111,2 -111,5c0,14 161,325 168,325c4,0 16,-66 26,-147z" id="svg_15"/>
    <path d="m5036,5795c-11,-29 -7,-32 35,-38c22,-3 43,-8 47,-12c11,-10 -106,-667 -122,-682c-3,-4 -25,-9 -49,-12c-34,-5 -43,-10 -45,-28l-3,-23l165,0l166,0l0,25c0,22 -5,25 -32,25c-60,0 -62,6 -44,116c35,213 32,204 76,204c69,0 92,-30 134,-182c21,-73 44,-143 52,-155c20,-31 77,-47 148,-39c34,3 120,6 192,6c124,-1 132,0 137,20c6,24 4,26 -50,35l-42,7l52,104l52,104l127,0l127,0l6,-32c31,-188 31,-188 -36,-188c-35,0 -49,-12 -49,-41c0,-5 71,-9 165,-9l165,0l0,25c0,22 -5,25 -32,25c-18,0 -38,4 -44,8c-7,4 -36,171 -66,377l-54,370l-37,3c-45,4 -21,42 -252,-402l-180,-345l-50,-8c-30,-5 -71,-5 -104,2l-53,10l-38,123c-38,125 -67,173 -115,192c-16,6 -17,9 -5,13c167,54 226,120 218,241c-5,76 -30,115 -96,148c-44,21 -61,23 -253,26c-185,3 -207,2 -213,-13zm346,-45c20,-6 48,-24 62,-41c21,-25 26,-41 26,-88c0,-121 -67,-187 -200,-198c-71,-6 -71,-6 -66,18c9,36 56,301 56,311c0,11 77,10 122,-2zm749,-247c27,-204 37,-183 -86,-183c-71,0 -105,4 -105,11c0,17 161,321 167,315c3,-3 14,-67 24,-143z" id="svg_16"/>
    <path d="m6640,5802c0,-6 -2,-17 -6,-25c-4,-11 7,-16 46,-21c45,-6 50,-9 46,-29c-3,-12 -31,-164 -62,-337c-31,-173 -61,-321 -66,-327c-6,-7 -27,-13 -48,-13c-36,0 -50,-12 -50,-41c0,-13 343,-11 416,2c133,24 263,118 317,229c37,76 60,191 53,265c-12,134 -69,221 -178,271c-62,28 -67,29 -265,32c-134,3 -203,1 -203,-6zm330,-53c25,-5 62,-21 83,-35c79,-52 114,-197 83,-342c-42,-201 -148,-308 -317,-319c-64,-5 -79,-3 -79,8c0,29 114,658 125,687c5,15 44,15 105,1z" id="svg_17"/>
    <path d="m7467,5803c-16,-16 -6,-43 16,-43c12,0 33,-3 46,-7c22,-6 23,-9 16,-57c-12,-98 -105,-601 -115,-623c-7,-17 -19,-23 -52,-25c-36,-2 -44,-7 -46,-26l-3,-23l163,3c160,3 163,3 166,26c3,20 -1,22 -38,22c-51,0 -55,10 -40,102c13,80 84,463 101,545l10,52l50,7c43,6 49,9 49,30l0,24l-158,0c-87,0 -162,-3 -165,-7z" id="svg_18"/>
    <path d="m8537,5803c-4,-3 -7,-14 -7,-23c0,-13 11,-19 41,-23c22,-3 43,-8 46,-11c8,-8 -110,-672 -122,-684c-3,-3 -24,-8 -47,-11c-30,-5 -43,-12 -49,-28l-8,-23l294,0l294,0l10,38c5,20 14,62 21,92c6,30 14,63 17,73c3,13 -2,17 -25,17c-27,0 -32,-6 -63,-82l-34,-83l-125,-3c-68,-1 -129,-1 -136,2c-9,3 -4,47 17,168c16,90 29,164 29,166c0,1 36,2 80,2l80,0l0,-55c0,-51 2,-55 24,-55c22,0 25,6 35,63c6,34 17,95 25,135l14,72l-23,0c-18,0 -26,-11 -42,-52l-20,-53l-82,-3c-80,-3 -82,-3 -76,20c2,13 14,75 25,138c31,172 20,160 145,160c76,0 107,-4 110,-12c2,-7 7,-43 10,-80c6,-66 7,-68 34,-68c27,0 28,2 39,83c7,45 12,92 12,105l0,22l-268,0c-148,0 -272,-3 -275,-7z" id="svg_19"/>
    <path d="m3830,4459c-69,-13 -152,-59 -177,-98c-29,-43 -30,-108 -3,-161c37,-72 61,-68 29,6c-26,61 -21,117 14,151c26,27 143,73 183,73c19,0 24,-4 20,-17c-2,-10 -15,-64 -27,-120c-22,-100 -23,-102 -52,-105c-42,-4 -48,-28 -8,-28c36,0 35,4 16,-78c-32,-137 -88,-191 -155,-150c-15,10 -22,10 -32,0c-19,-20 16,-42 65,-42c81,0 133,65 160,200l13,65l44,5c59,7 64,28 7,32l-44,3l26,113c15,65 32,117 41,123c9,5 54,7 113,3c82,-6 97,-4 97,8c0,9 -13,18 -31,22c-45,9 -246,5 -299,-5z" id="svg_20"/>
    <path d="m5367,4456c-118,-43 -212,-185 -224,-341c-6,-83 8,-142 43,-185c38,-44 75,-60 141,-60c86,1 168,42 219,112c39,52 16,51 -39,-2c-36,-35 -67,-55 -101,-65c-64,-19 -82,-19 -132,4c-137,62 -100,368 57,477c48,33 123,47 159,30c20,-9 26,-19 28,-56c4,-65 -28,-111 -88,-126c-55,-13 -63,-40 -11,-36c78,6 141,80 141,166c0,68 -31,96 -102,96c-29,-1 -70,-7 -91,-14z" id="svg_21"/>
    <path d="m5755,4314c-12,-12 -13,-19 -4,-30c15,-18 33,-18 49,1c10,12 10,18 0,30c-16,19 -25,19 -45,-1z" id="svg_22"/>
    <path d="m4090,4175c-29,-76 -37,-224 -13,-232c6,-2 31,37 56,89c24,51 52,102 61,113c16,19 16,18 10,-25c-4,-37 -2,-51 14,-70c17,-21 22,-22 48,-12c16,7 35,21 42,32c15,25 1,26 -34,4c-38,-25 -49,-8 -35,56c12,57 9,70 -18,70c-23,0 -51,-31 -90,-100c-34,-61 -40,-48 -16,40c8,30 15,56 15,58c0,1 -7,2 -15,2c-9,0 -20,-11 -25,-25z" id="svg_23"/>
    <path d="m4405,4178c-30,-24 -64,-90 -65,-126c0,-37 28,-88 56,-101c37,-17 90,-13 133,9c47,23 71,46 71,66c0,10 -12,5 -40,-17c-53,-42 -127,-52 -159,-20c-30,30 -27,37 25,50c62,16 104,58 104,105c0,25 -6,38 -19,46c-32,16 -76,12 -106,-12zm93,-39c4,-31 -36,-65 -87,-75c-33,-7 -37,-1 -22,38c26,67 103,93 109,37z" id="svg_24"/>
    <path d="m4675,4178c-35,-28 -55,-75 -55,-133c0,-89 80,-130 175,-91c44,19 95,68 77,74c-8,2 -23,-5 -35,-16c-46,-44 -131,-56 -160,-24c-26,28 -21,36 32,55c52,18 101,66 101,98c0,54 -84,78 -135,37zm95,-23c19,-23 -16,-66 -68,-85c-49,-17 -56,-12 -42,26c25,64 81,94 110,59z" id="svg_25"/>
    <path d="m5712,4188c-13,-16 -38,-80 -52,-135c-13,-51 0,-89 34,-104c34,-16 70,-4 114,36c45,41 36,58 -11,22c-19,-14 -46,-29 -60,-32c-22,-6 -29,-3 -38,19c-10,22 -8,38 13,98c13,40 26,79 29,87c5,18 -15,25 -29,9z" id="svg_26"/>
    <path d="m5915,4158c-10,-24 -20,-83 -23,-132c-5,-82 -4,-88 14,-85c12,3 31,29 51,69c35,69 106,159 118,149c3,-4 -3,-35 -14,-70c-24,-70 -27,-119 -9,-137c27,-27 99,-4 137,44c42,54 19,60 -32,9c-44,-44 -77,-47 -77,-7c0,15 10,59 21,99c24,79 21,103 -13,103c-28,0 -106,-81 -137,-143c-12,-27 -25,-46 -27,-44c-3,2 2,38 11,78c22,97 22,101 9,106c-6,2 -19,-15 -29,-39z" id="svg_27"/>
    <path d="m6285,4178c-35,-28 -55,-75 -55,-133c0,-93 87,-133 186,-85c45,22 81,56 71,67c-4,3 -25,-6 -47,-22c-51,-36 -122,-45 -150,-20c-30,27 -25,39 29,58c51,18 101,65 101,96c0,9 -7,27 -16,39c-21,30 -81,30 -119,0zm99,-24c13,-35 -55,-94 -108,-94c-20,0 -4,55 26,87c25,27 73,31 82,7z" id="svg_28"/>
    <path d="m6551,4169c-16,-47 -43,-208 -36,-219c15,-25 38,-3 75,73c43,85 90,146 90,115c0,-9 -7,-50 -16,-93c-15,-75 -14,-105 5,-105c6,0 31,40 56,89c25,49 55,97 65,106c19,17 20,17 20,-2c0,-11 -7,-40 -15,-63c-43,-123 18,-175 108,-91c47,44 45,68 -3,28c-77,-65 -102,-45 -72,58c29,99 29,125 -1,125c-29,0 -77,-50 -111,-115c-14,-28 -24,-39 -21,-25c16,78 23,126 19,132c-10,16 -41,7 -67,-20c-15,-16 -43,-57 -62,-93c-19,-35 -35,-61 -35,-57c0,13 29,154 35,171c5,11 2,17 -8,17c-8,0 -20,-14 -26,-31z" id="svg_29"/>
    <path d="m7039,4177c-69,-46 -113,-182 -71,-220c27,-24 76,-21 108,7l28,23l21,-25c17,-19 27,-24 48,-19c32,9 87,54 87,73c0,20 -10,17 -39,-10c-35,-32 -69,-42 -77,-22c-5,14 7,111 23,174c4,16 1,22 -11,22c-9,0 -16,5 -16,10c0,19 -67,10 -101,-13zm91,-18c0,-36 -43,-148 -64,-168c-31,-30 -68,-25 -80,11c-19,53 67,168 125,168c11,0 19,-5 19,-11z" id="svg_30"/>
   </g>
  </symbol>
 </defs>
 <g class="layer">
  <title>Layer 1</title>
  <g id="svg_3"/>
  <g id="svg_6"/>
  <g class="svg_logo" id="svg_31">
   <use id="svg_5" transform="matrix(1.23068 0 0 1.22307 -143.805 -245.188)" x="114.986293" xlink:href="#svg_4" y="201.783806"/>
   <use id="svg_2" transform="rotate(180 9.99543 6.00238) matrix(-0.45515 0 0 -0.462714 -297.733 -1108.47)" x="-686.17279" xlink:href="#svg_1" y="-2418.577975"/>
  </g>
  <image height="48" id="svg_35" width="48" x="96.962852" xlink:href="images/logo.png" y="310.603947"/>
  <image height="48" id="svg_36" width="48" x="83.078784" xlink:href="images/logo.png" y="335.76882"/>
 </g>
</svg>