<?xml version="1.0" standalone="no"?>
<!DOCTYPE svg>
<svg version="1.0" xmlns="http://www.w3.org/2000/svg"
 width="40.000000pt" height="40.000000pt" viewBox="0 0 40.000000 40.000000"
 preserveAspectRatio="xMidYMid meet">
<g transform="translate(0.000000,40.000000) scale(0.100000,-0.100000)"
fill="#000000" stroke="none">
<path d="M175 345 c-163 -50 -170 -54 -173 -80 -2 -15 1 -32 7 -38 7 -7 11
-55 11 -119 l0 -108 188 2 187 3 3 122 3 122 -152 3 -152 3 131 39 c72 21 136
42 143 46 15 10 3 60 -14 59 -6 0 -88 -24 -182 -54z m175 15 c12 -8 12 -10 -5
-10 -11 0 -27 5 -35 10 -12 8 -12 10 5 10 11 0 27 -5 35 -10z m-54 -15 c16
-12 16 -14 3 -15 -9 0 -22 7 -29 15 -16 19 0 19 26 0z m-36 -15 c12 -8 12 -10
-5 -10 -11 0 -27 5 -35 10 -12 8 -12 10 5 10 11 0 27 -5 35 -10z m-51 -9 c7
-5 9 -11 4 -14 -6 -4 -19 0 -29 8 -15 11 -16 14 -4 15 8 0 21 -4 29 -9z m-42
-28 c-9 -8 -48 8 -42 18 4 5 14 5 26 -2 12 -6 18 -13 16 -16z m-47 -3 c12 -8
12 -10 -5 -10 -11 0 -27 5 -35 10 -12 8 -12 10 5 10 11 0 27 -5 35 -10z m-54
-15 c10 -8 15 -14 9 -14 -5 0 -19 6 -29 14 -11 8 -15 15 -10 15 6 0 19 -7 30
-15z m-18 -27 c-6 -18 -28 -21 -28 -4 0 9 7 16 16 16 9 0 14 -5 12 -12z m32
-33 c-7 -8 -19 -15 -27 -15 -13 0 -13 3 -3 15 7 8 19 15 27 15 13 0 13 -3 3
-15z m40 0 c-7 -8 -17 -15 -22 -15 -6 0 -5 7 2 15 7 8 17 15 22 15 6 0 5 -7
-2 -15z m50 0 c-7 -8 -17 -15 -22 -15 -6 0 -5 7 2 15 7 8 17 15 22 15 6 0 5
-7 -2 -15z m50 0 c-7 -8 -19 -15 -27 -15 -13 0 -13 3 -3 15 7 8 19 15 27 15
13 0 13 -3 3 -15z m50 0 c-7 -8 -19 -15 -27 -15 -13 0 -13 3 -3 15 7 8 19 15
27 15 13 0 13 -3 3 -15z m50 0 c-7 -8 -19 -15 -27 -15 -13 0 -13 3 -3 15 7 8
19 15 27 15 13 0 13 -3 3 -15z m40 0 c-7 -8 -17 -15 -22 -15 -6 0 -5 7 2 15 7
8 17 15 22 15 6 0 5 -7 -2 -15z m20 -115 l0 -80 -175 0 -175 0 0 80 0 80 175
0 175 0 0 -80z"/>
</g>
</svg>
